{"asset":{"version":"2.0","generator":"3dpea GLTFExporter"},"scenes":[{"name":"AuxScene","nodes":[2]}],"scene":0,"nodes":[{"name":"tmpn04fnfanply","extras":{"processed":true,"file_path":"/tmp/tmpn04fnfan.ply","file_name":"tmpn04fnfan.ply","name":"tmpn04fnfan.ply"},"mesh":0},{"name":"world","extras":{"name":"world"},"children":[0]},{"name":"tmpup_sqiy3","extras":{"nowCenter":true},"children":[1]}],"bufferViews":[{"buffer":0,"byteOffset":0,"byteLength":574344,"target":34962,"byteStride":12},{"buffer":0,"byteOffset":574344,"byteLength":191448,"target":34962,"byteStride":4},{"buffer":0,"byteOffset":765792,"byteLength":1148592,"target":34963}],"buffers":[{"byteLength":1914384,"uri":"data:application/octet-stream;base64,"}],"accessors":[{"bufferView":0,"componentType":5126,"count":47862,"max":[0.9902392029762268,0.9731151461601257,0.4808909595012665],"min":[-0.9908071756362915,-0.9881345629692078,-0.4742181599140167],"type":"VEC3"},{"bufferView":1,"componentType":5121,"count":47862,"max":[227,174,239,255],"min":[1,78,84,255],"type":"VEC4","normalized":true},{"bufferView":2,"componentType":5125,"count":287148,"max":[47861],"min":[0],"type":"SCALAR"}],"materials":[{"pbrMetallicRoughness":{"metallicFactor":1,"roughnessFactor":1},"name":"Mat_1"}],"meshes":[{"primitives":[{"mode":4,"attributes":{"POSITION":0,"COLOR_0":1},"indices":2,"material":0}]}]}